<svg width="257" height="43" viewBox="0 0 257 43" fill="none" xmlns="http://www.w3.org/2000/svg">
<g filter="url(#filter0_d)">
<path d="M22.35 10.8H5.35V19.4H16.8L21.05 23.7V36.65L16.8 41H4.7L0.4 36.65V33.2L5.35 28.45V36.65H16.1V23.7H4.7L0.4 19.4V10.8L4.7 6.45H18L22.35 10.8ZM45.2832 19.4L40.3332 24.4V19.4H33.5832V36.65H44.6832V41H32.9332L28.6332 36.65V19.4L32.9332 15.05H40.9332L45.2832 19.4ZM66.7793 41H61.8293V37.3L58.1293 41H53.1793L48.8793 36.65V28.05L53.1793 23.7H61.3293L57.2293 28H53.7793V36.65H61.8293V19.4H48.2293L51.9293 15.05H62.4793L66.7793 19.4V41ZM84.3293 41H79.4293L75.1293 36.65V5.8L80.0793 0.899998V36.65H84.3293V41ZM106.395 41H92.8453L88.5453 36.65V19.4L92.8453 15.05H102.095L106.395 19.4V28.05L102.095 32.35H94.0953L98.4953 28.05H101.495V19.4H93.4953V36.65H106.395V41ZM135.611 41H130.661V23.7H118.961V41H114.011V6.45H118.961V23.1L122.611 19.4H130.661V6.45H135.611V41ZM162.455 41H157.555V37.3L153.855 41H148.905L144.555 36.65V15.05H149.505V36.65H157.555V15.05H162.455V41ZM188.975 41H184.075V19.4H176.075V41H171.125V15.05H176.075V18.8L179.725 15.05H184.675L188.975 19.4V41ZM209.996 15.05L205.646 19.4H202.546V36.65H208.696V41H201.946L197.596 36.65V19.4H191.446L195.796 15.05H197.596V11.4L202.546 6.45V15.05H209.996ZM231.054 41H217.504L213.204 36.65V19.4L217.504 15.05H226.754L231.054 19.4V28.05L226.754 32.35H218.754L223.154 28.05H226.154V19.4H218.154V36.65H231.054V41ZM255.319 23.7L250.369 28.65V19.4H243.019V41H238.069V15.05H243.019V18.8L246.619 15.05H251.019L255.319 19.4V23.7Z" fill="#FD7014"/>
</g>
<defs>
<filter id="filter0_d" x="0.400024" y="0.899994" width="255.919" height="42.1" filterUnits="userSpaceOnUse" color-interpolation-filters="sRGB">
<feFlood flood-opacity="0" result="BackgroundImageFix"/>
<feColorMatrix in="SourceAlpha" type="matrix" values="0 0 0 0 0 0 0 0 0 0 0 0 0 0 0 0 0 0 127 0"/>
<feOffset dx="1" dy="2"/>
<feColorMatrix type="matrix" values="0 0 0 0 0.223529 0 0 0 0 0.243137 0 0 0 0 0.27451 0 0 0 1 0"/>
<feBlend mode="normal" in2="BackgroundImageFix" result="effect1_dropShadow"/>
<feBlend mode="normal" in="SourceGraphic" in2="effect1_dropShadow" result="shape"/>
</filter>
</defs>
</svg>
