<svg width="235" height="41" viewBox="0 0 235 41" fill="none" xmlns="http://www.w3.org/2000/svg">
<g filter="url(#filter0_d)">
<path d="M20.4659 24.2578C20.8326 24.8578 21.0159 26.0578 21.0159 27.8578C21.0159 29.6245 20.6493 31.1245 19.9159 32.3578C19.2493 33.3245 17.8326 34.6745 15.6659 36.4078C13.4993 38.1078 11.8993 38.9578 10.8659 38.9578C9.03259 38.9578 6.93259 38.0078 4.56592 36.1078C2.19925 34.1745 0.699251 32.0578 0.065918 29.7578L5.61592 25.9578C6.14925 27.5245 6.99925 28.9578 8.16592 30.2578C9.33259 31.5578 10.1493 32.2078 10.6159 32.2078C11.1159 32.2078 11.6326 32.0578 12.1659 31.7578C12.7326 31.4245 13.1659 31.0912 13.4659 30.7578C13.8993 30.2245 14.1159 29.3912 14.1159 28.2578C14.1159 27.1245 13.8493 26.4245 13.3159 26.1578C12.6493 25.5912 11.3493 24.8412 9.41592 23.9078C7.51592 22.9745 5.74925 21.9745 4.11592 20.9078C2.48258 19.8078 1.43258 18.7412 0.965918 17.7078C0.532585 16.6745 0.315918 15.3412 0.315918 13.7078C0.315918 12.0412 0.682585 10.5912 1.41592 9.35783C2.08258 8.39117 3.49925 7.05783 5.66592 5.35783C7.83259 3.6245 9.43259 2.75783 10.4659 2.75783C12.2993 2.75783 14.3993 3.7245 16.7659 5.65783C19.1326 7.55783 20.6326 9.65783 21.2659 11.9578L15.7159 15.8078C15.1826 14.2412 14.3326 12.8078 13.1659 11.5078C11.9993 10.1745 11.1659 9.50783 10.6659 9.50783C10.1993 9.50783 9.68259 9.65783 9.11592 9.95783C8.54925 10.2578 8.08259 10.6412 7.71592 11.1078C7.38258 11.5412 7.21592 12.3078 7.21592 13.4078C7.21592 14.4745 7.54925 15.1912 8.21592 15.5578C8.74925 16.0245 9.96592 16.7578 11.8659 17.7578C16.7326 20.4245 19.5993 22.5912 20.4659 24.2578ZM24.8093 32.8578C24.1093 31.7578 23.7593 29.1078 23.7593 24.9078C23.7593 20.7078 24.1093 18.0412 24.8093 16.9078C25.3093 16.0745 26.5426 14.8578 28.5093 13.2578C30.4759 11.6245 31.9926 10.8078 33.0593 10.8078C34.1593 10.8078 35.6259 11.4578 37.4593 12.7578C39.3259 14.0245 40.7259 15.4745 41.6593 17.1078L36.5093 20.6578C36.0759 19.8578 35.4759 18.9745 34.7093 18.0078C33.9759 17.0412 33.4259 16.5578 33.0593 16.5578C32.3926 16.5578 31.6259 17.2578 30.7593 18.6578C30.3259 19.5245 30.1093 21.6078 30.1093 24.9078C30.1093 28.1745 30.3259 30.2412 30.7593 31.1078C31.0259 31.5412 31.3759 32.0078 31.8093 32.5078C32.2426 32.9745 32.6759 33.2078 33.1093 33.2078C33.5426 33.2078 34.1093 32.8245 34.8093 32.0578C35.5093 31.2912 36.0759 30.3078 36.5093 29.1078L41.6593 32.7078C40.7593 34.3745 39.3759 35.8412 37.5093 37.1078C35.6759 38.3412 34.2093 38.9578 33.1093 38.9578C32.0093 38.9578 30.4759 38.1578 28.5093 36.5578C26.5426 34.9245 25.3093 33.6912 24.8093 32.8578ZM62.73 11.4078V31.9078C62.93 33.0745 63.7133 34.1078 65.08 35.0078L60.58 38.8578C60.1466 38.5578 59.6133 38.0245 58.98 37.2578C58.3466 36.4912 57.8133 35.7078 57.38 34.9078C54.6133 37.6078 52.68 38.9578 51.58 38.9578C50.78 38.9578 49.48 38.0745 47.68 36.3078C45.9133 34.5412 44.8133 33.1078 44.38 32.0078C43.9466 30.9078 43.73 28.5412 43.73 24.9078C43.73 21.2412 43.9466 18.8578 44.38 17.7578C44.8133 16.6578 45.9133 15.2245 47.68 13.4578C49.48 11.6912 50.78 10.8078 51.58 10.8078C52.7466 10.8078 54.63 12.0078 57.23 14.4078L57.83 11.4078H62.73ZM55.78 19.0578C55.5466 18.6245 55.0633 18.1912 54.33 17.7578C53.63 17.2912 53.0966 17.0578 52.73 17.0578C52.3633 17.0578 51.9633 17.2745 51.53 17.7078C51.13 18.1412 50.8633 18.5412 50.73 18.9078C50.2966 19.5078 50.08 21.5078 50.08 24.9078C50.08 28.2745 50.2966 30.2578 50.73 30.8578C50.8633 31.1912 51.13 31.5912 51.53 32.0578C51.9633 32.4912 52.3633 32.7078 52.73 32.7078C53.0966 32.7078 53.63 32.4912 54.33 32.0578C55.0633 31.5912 55.53 31.1745 55.73 30.8078C55.9633 30.4412 56.0966 28.4912 56.13 24.9578C56.13 21.4245 56.0133 19.4578 55.78 19.0578ZM67.564 0.857831H74.164V28.7078C74.164 30.4078 74.364 31.7245 74.764 32.6578C75.164 33.5912 75.7973 34.4078 76.664 35.1078L71.164 38.9578C68.764 37.0578 67.564 34.3578 67.564 30.8578V0.857831ZM97.6351 24.8078V26.6078H85.5351C85.5351 28.6078 85.7851 30.1912 86.2851 31.3578C86.4517 31.7578 86.7517 32.1745 87.1851 32.6078C87.6184 33.0078 88.0684 33.2078 88.5351 33.2078C89.0017 33.2078 89.5851 32.8078 90.2851 32.0078C90.9851 31.2078 91.5351 30.2412 91.9351 29.1078L97.0851 32.7578C96.1851 34.4245 94.8017 35.8745 92.9351 37.1078C91.1017 38.3412 89.6184 38.9578 88.4851 38.9578C87.3517 38.9578 85.7017 38.0745 83.5351 36.3078C81.4017 34.5412 80.1017 33.1745 79.6351 32.2078C79.1684 31.2078 78.9351 28.7745 78.9351 24.9078C78.9351 21.0078 79.1684 18.5745 79.6351 17.6078C80.1017 16.6078 81.4017 15.2245 83.5351 13.4578C85.7017 11.6912 87.2851 10.8078 88.2851 10.8078C89.2851 10.8078 90.8517 11.6912 92.9851 13.4578C95.1517 15.2245 96.4684 16.6078 96.9351 17.6078C97.4017 18.5745 97.6351 20.9745 97.6351 24.8078ZM90.6851 18.5578C90.4517 18.0912 90.0684 17.6412 89.5351 17.2078C89.0351 16.7745 88.5517 16.5578 88.0851 16.5578C87.6517 16.5578 87.1517 17.0078 86.5851 17.9078C86.0184 18.7745 85.6684 20.0912 85.5351 21.8578H91.2351C91.1351 20.0912 90.9517 18.9912 90.6851 18.5578ZM116.952 38.3578V22.3578H110.052V38.3578H103.152V16.9578C103.152 14.1245 102.952 12.1578 102.552 11.0578C102.185 9.9245 101.385 8.55783 100.152 6.95783L106.152 2.75783C107.219 3.45783 108.135 4.75783 108.902 6.65783C109.669 8.5245 110.052 10.7912 110.052 13.4578V16.3578H116.952V3.35783H123.852V38.3578H116.952ZM128.361 11.4078H134.961V30.0078C134.961 30.5745 135.228 31.1745 135.761 31.8078C136.294 32.4078 136.794 32.7078 137.261 32.7078C137.728 32.7078 138.694 32.0245 140.161 30.6578V11.4078H146.761V38.3578H141.661L141.061 35.4078C138.561 37.7745 136.811 38.9578 135.811 38.9578C134.811 38.9578 133.311 38.0412 131.311 36.2078C129.344 34.3412 128.361 32.5078 128.361 30.7078V11.4078ZM159.355 38.3578H152.755V21.1078C152.755 19.4078 152.555 18.0912 152.155 17.1578C151.755 16.2245 151.122 15.4078 150.255 14.7078L155.755 10.8578C156.989 11.8578 157.905 13.0078 158.505 14.3078C160.972 11.9745 162.705 10.8078 163.705 10.8078C164.739 10.8078 166.272 11.7412 168.305 13.6078C170.372 15.4412 171.405 17.2578 171.405 19.0578V28.7078C171.405 30.4078 171.605 31.7245 172.005 32.6578C172.405 33.5912 173.039 34.4078 173.905 35.1078L168.405 38.9578C166.005 37.0578 164.805 34.3578 164.805 30.8578V19.7578C164.805 19.1912 164.505 18.6078 163.905 18.0078C163.305 17.3745 162.739 17.0578 162.205 17.0578C161.705 17.0578 160.755 17.7578 159.355 19.1578V38.3578ZM184.502 16.6578V27.7078C184.502 29.2745 185.035 30.7078 186.102 32.0078C187.169 33.3078 188.635 34.3412 190.502 35.1078L185.002 38.9578C183.002 38.0245 181.319 36.7412 179.952 35.1078C178.585 33.4412 177.902 31.6912 177.902 29.8578V16.6578H175.402V12.9078L177.902 12.3078C177.835 10.6745 177.635 9.39116 177.302 8.45783C176.969 7.49117 176.335 6.55783 175.402 5.65783L180.902 1.80783C183.302 3.70783 184.502 6.40783 184.502 9.90783V11.4078H190.102V16.6578H184.502ZM211.942 24.8078V26.6078H199.842C199.842 28.6078 200.092 30.1912 200.592 31.3578C200.758 31.7578 201.058 32.1745 201.492 32.6078C201.925 33.0078 202.375 33.2078 202.842 33.2078C203.308 33.2078 203.892 32.8078 204.592 32.0078C205.292 31.2078 205.842 30.2412 206.242 29.1078L211.392 32.7578C210.492 34.4245 209.108 35.8745 207.242 37.1078C205.408 38.3412 203.925 38.9578 202.792 38.9578C201.658 38.9578 200.008 38.0745 197.842 36.3078C195.708 34.5412 194.408 33.1745 193.942 32.2078C193.475 31.2078 193.242 28.7745 193.242 24.9078C193.242 21.0078 193.475 18.5745 193.942 17.6078C194.408 16.6078 195.708 15.2245 197.842 13.4578C200.008 11.6912 201.592 10.8078 202.592 10.8078C203.592 10.8078 205.158 11.6912 207.292 13.4578C209.458 15.2245 210.775 16.6078 211.242 17.6078C211.708 18.5745 211.942 20.9745 211.942 24.8078ZM204.992 18.5578C204.758 18.0912 204.375 17.6412 203.842 17.2078C203.342 16.7745 202.858 16.5578 202.392 16.5578C201.958 16.5578 201.458 17.0078 200.892 17.9078C200.325 18.7745 199.975 20.0912 199.842 21.8578H205.542C205.442 20.0912 205.258 18.9912 204.992 18.5578ZM223.808 38.3578H217.208V21.1078C217.208 19.4078 216.992 18.0912 216.558 17.1578C216.158 16.1912 215.542 15.3578 214.708 14.6578L220.208 10.8078C221.408 11.8078 222.325 12.9745 222.958 14.3078C225.425 11.9745 227.158 10.8078 228.158 10.8078C228.825 10.8078 229.842 11.4245 231.208 12.6578C232.575 13.8912 233.375 15.2412 233.608 16.7078L228.258 20.5578C228.225 19.7578 228.025 18.9745 227.658 18.2078C227.325 17.4412 227.025 17.0578 226.758 17.0578C226.192 17.0578 225.208 17.7578 223.808 19.1578V38.3578Z" fill="#FD7014"/>
</g>
<defs>
<filter id="filter0_d" x="0.065918" y="0.857834" width="234.543" height="40.1" filterUnits="userSpaceOnUse" color-interpolation-filters="sRGB">
<feFlood flood-opacity="0" result="BackgroundImageFix"/>
<feColorMatrix in="SourceAlpha" type="matrix" values="0 0 0 0 0 0 0 0 0 0 0 0 0 0 0 0 0 0 127 0"/>
<feOffset dx="1" dy="2"/>
<feColorMatrix type="matrix" values="0 0 0 0 0.223529 0 0 0 0 0.243137 0 0 0 0 0.27451 0 0 0 1 0"/>
<feBlend mode="normal" in2="BackgroundImageFix" result="effect1_dropShadow"/>
<feBlend mode="normal" in="SourceGraphic" in2="effect1_dropShadow" result="shape"/>
</filter>
</defs>
</svg>
