<svg width="284" height="40" viewBox="0 0 284 40" fill="none" xmlns="http://www.w3.org/2000/svg">
<g filter="url(#filter0_d)">
<path d="M0.42627 12.8461C0.42627 11.3975 0.702962 10.0385 1.25635 8.76897C1.80973 7.49944 2.55843 6.39266 3.50244 5.44865C4.46273 4.48837 5.57764 3.73153 6.84717 3.17815C8.1167 2.62476 9.47575 2.34807 10.9243 2.34807H26.9888V9.3549H10.9243C10.436 9.3549 9.98031 9.44442 9.55713 9.62346C9.13395 9.8025 8.7596 10.0548 8.43408 10.3803C8.12484 10.6895 7.8807 11.0558 7.70166 11.4789C7.52262 11.9021 7.43311 12.3578 7.43311 12.8461C7.43311 13.3344 7.52262 13.7983 7.70166 14.2377C7.8807 14.6609 8.12484 15.0352 8.43408 15.3608C8.7596 15.67 9.13395 15.9141 9.55713 16.0932C9.98031 16.2722 10.436 16.3617 10.9243 16.3617H17.9312C19.3797 16.3617 20.7388 16.6384 22.0083 17.1918C23.2941 17.7289 24.409 18.4776 25.353 19.4379C26.3133 20.3819 27.062 21.4968 27.5991 22.7826C28.1525 24.0522 28.4292 25.4112 28.4292 26.8598C28.4292 28.3084 28.1525 29.6674 27.5991 30.9369C27.062 32.2065 26.3133 33.3214 25.353 34.2817C24.409 35.2257 23.2941 35.9744 22.0083 36.5278C20.7388 37.0811 19.3797 37.3578 17.9312 37.3578H2.37939V30.351H17.9312C18.4194 30.351 18.8752 30.2615 19.2983 30.0824C19.7215 29.9034 20.0877 29.6593 20.397 29.35C20.7225 29.0245 20.9748 28.6502 21.1538 28.227C21.3328 27.8038 21.4224 27.3481 21.4224 26.8598C21.4224 26.3715 21.3328 25.9158 21.1538 25.4926C20.9748 25.0694 20.7225 24.7032 20.397 24.394C20.0877 24.0684 19.7215 23.8162 19.2983 23.6371C18.8752 23.4581 18.4194 23.3686 17.9312 23.3686H10.9243C9.47575 23.3686 8.1167 23.0919 6.84717 22.5385C5.57764 21.9851 4.46273 21.2364 3.50244 20.2924C2.55843 19.3321 1.80973 18.2172 1.25635 16.9477C0.702962 15.6619 0.42627 14.2947 0.42627 12.8461ZM55.187 16.4106L50.3042 21.3178C50.0601 20.6342 49.7264 20.0238 49.3032 19.4867C48.88 18.9334 48.3999 18.4695 47.8628 18.0951C47.342 17.7208 46.7723 17.436 46.1538 17.2406C45.5353 17.0453 44.9006 16.9477 44.2495 16.9477C43.3381 16.9477 42.4754 17.1349 41.6616 17.5092C40.8641 17.8836 40.1642 18.4125 39.562 19.0961C38.9761 19.7634 38.5122 20.561 38.1704 21.4887C37.8286 22.4164 37.6577 23.4418 37.6577 24.5649C37.6577 25.4763 37.8286 26.3308 38.1704 27.1283C38.5122 27.9259 38.9761 28.6257 39.562 29.228C40.1642 29.8302 40.8641 30.3022 41.6616 30.644C42.4754 30.9858 43.3381 31.1567 44.2495 31.1567C44.9006 31.1567 45.5272 31.0671 46.1294 30.8881C46.7316 30.7091 47.2931 30.4568 47.814 30.1313C48.3511 29.7895 48.8231 29.3826 49.23 28.9106C49.6532 28.4223 49.995 27.8852 50.2554 27.2992L55.1382 32.2065C54.5197 33.0854 53.8035 33.8748 52.9897 34.5746C52.1922 35.2745 51.3215 35.8686 50.3774 36.3569C49.4497 36.8451 48.465 37.2113 47.4233 37.4555C46.3979 37.7159 45.34 37.8461 44.2495 37.8461C42.4103 37.8461 40.6769 37.5043 39.0493 36.8207C37.438 36.1209 36.022 35.1687 34.8013 33.9643C33.5968 32.7599 32.6447 31.352 31.9448 29.7406C31.245 28.1293 30.895 26.4041 30.895 24.5649C30.895 22.5629 31.245 20.6912 31.9448 18.9496C32.6447 17.2081 33.5968 15.6944 34.8013 14.4086C36.022 13.1065 37.438 12.0811 39.0493 11.3324C40.6769 10.5837 42.4103 10.2094 44.2495 10.2094C45.34 10.2094 46.4061 10.3477 47.4478 10.6244C48.5057 10.9011 49.5067 11.308 50.4507 11.8451C51.411 12.366 52.2899 13.0089 53.0874 13.7738C53.9012 14.5388 54.6011 15.4177 55.187 16.4106ZM83.3853 37.3578H81.7739L79.186 33.769C78.5513 34.3386 77.8758 34.8757 77.1597 35.3803C76.4598 35.8686 75.7192 36.2999 74.938 36.6742C74.1567 37.0323 73.3511 37.3171 72.521 37.5287C71.7072 37.7403 70.8771 37.8461 70.0308 37.8461C68.1916 37.8461 66.4582 37.5369 64.8306 36.9184C63.2192 36.2999 61.8032 35.4047 60.5825 34.2328C59.3781 33.0447 58.4259 31.5961 57.7261 29.8871C57.0262 28.1781 56.6763 26.2332 56.6763 24.0522C56.6763 22.0177 57.0262 20.1541 57.7261 18.4613C58.4259 16.7524 59.3781 15.2875 60.5825 14.0668C61.8032 12.8461 63.2192 11.9021 64.8306 11.2348C66.4582 10.5512 68.1916 10.2094 70.0308 10.2094C70.8771 10.2094 71.7153 10.3152 72.5454 10.5268C73.3755 10.7384 74.1812 11.0313 74.9624 11.4057C75.7437 11.78 76.4842 12.2195 77.1841 12.724C77.9002 13.2286 78.5675 13.7738 79.186 14.3598L81.7739 11.2592H83.3853V37.3578ZM76.6714 24.0522C76.6714 23.1407 76.4924 22.2618 76.1343 21.4155C75.7925 20.5528 75.3205 19.796 74.7183 19.1449C74.116 18.4776 73.408 17.9487 72.5942 17.558C71.7967 17.1511 70.9422 16.9477 70.0308 16.9477C69.1193 16.9477 68.2567 17.1023 67.4429 17.4115C66.6453 17.7208 65.9455 18.1765 65.3433 18.7787C64.7573 19.3809 64.2935 20.1296 63.9517 21.0248C63.6099 21.9037 63.439 22.9128 63.439 24.0522C63.439 25.1915 63.6099 26.2087 63.9517 27.1039C64.2935 27.9828 64.7573 28.7234 65.3433 29.3256C65.9455 29.9278 66.6453 30.3836 67.4429 30.6928C68.2567 31.002 69.1193 31.1567 70.0308 31.1567C70.9422 31.1567 71.7967 30.9613 72.5942 30.5707C73.408 30.1638 74.116 29.6349 74.7183 28.9838C75.3205 28.3165 75.7925 27.5597 76.1343 26.7133C76.4924 25.8507 76.6714 24.9636 76.6714 24.0522ZM95.2017 37.3578H88.4878V0.809982H95.2017V37.3578ZM110.705 30.9613C110.965 31.0427 111.225 31.0997 111.486 31.1322C111.746 31.1485 112.007 31.1567 112.267 31.1567C112.918 31.1567 113.545 31.0671 114.147 30.8881C114.749 30.7091 115.311 30.4568 115.832 30.1313C116.369 29.7895 116.841 29.3826 117.248 28.9106C117.671 28.4223 118.013 27.8852 118.273 27.2992L123.156 32.2065C122.537 33.0854 121.821 33.8748 121.007 34.5746C120.21 35.2745 119.339 35.8686 118.395 36.3569C117.467 36.8451 116.483 37.2113 115.441 37.4555C114.416 37.7159 113.358 37.8461 112.267 37.8461C110.428 37.8461 108.694 37.5043 107.067 36.8207C105.456 36.1371 104.04 35.185 102.819 33.9643C101.614 32.7436 100.662 31.295 99.9624 29.6186C99.2625 27.9259 98.9126 26.0704 98.9126 24.0522C98.9126 21.9851 99.2625 20.0971 99.9624 18.3881C100.662 16.6791 101.614 15.2224 102.819 14.018C104.04 12.8136 105.456 11.8777 107.067 11.2104C108.694 10.5431 110.428 10.2094 112.267 10.2094C113.358 10.2094 114.424 10.3396 115.465 10.6C116.507 10.8604 117.492 11.2348 118.419 11.7231C119.363 12.2113 120.242 12.8136 121.056 13.5297C121.87 14.2296 122.586 15.019 123.205 15.8979L110.705 30.9613ZM114.123 17.2162C113.813 17.1023 113.504 17.0291 113.195 16.9965C112.902 16.964 112.593 16.9477 112.267 16.9477C111.356 16.9477 110.493 17.1186 109.679 17.4604C108.882 17.7859 108.182 18.2579 107.58 18.8764C106.994 19.4949 106.53 20.2436 106.188 21.1225C105.846 21.9851 105.675 22.9617 105.675 24.0522C105.675 24.2963 105.683 24.573 105.7 24.8822C105.732 25.1915 105.773 25.5089 105.822 25.8344C105.887 26.1436 105.96 26.4447 106.042 26.7377C106.123 27.0307 106.229 27.2911 106.359 27.519L114.123 17.2162ZM134.289 37.3578H127.282V2.34807H134.289V16.3617H148.278V2.34807H155.285V37.3578H148.278V23.3686H134.289V37.3578ZM179.967 34.3061C179.43 34.7944 178.852 35.2582 178.234 35.6977C177.632 36.1209 176.997 36.4952 176.33 36.8207C175.662 37.13 174.971 37.3741 174.254 37.5531C173.555 37.7485 172.838 37.8461 172.106 37.8461C170.495 37.8461 168.981 37.5613 167.565 36.9916C166.149 36.422 164.904 35.6163 163.83 34.5746C162.772 33.5167 161.933 32.239 161.315 30.7416C160.713 29.228 160.412 27.5352 160.412 25.6635V11.2104H167.052V25.6635C167.052 26.5424 167.182 27.3318 167.443 28.0317C167.72 28.7153 168.086 29.2931 168.542 29.7651C168.997 30.2371 169.526 30.5951 170.128 30.8393C170.747 31.0834 171.406 31.2055 172.106 31.2055C172.79 31.2055 173.432 31.0509 174.035 30.7416C174.653 30.4161 175.19 29.9929 175.646 29.4721C176.102 28.9513 176.46 28.3653 176.72 27.7143C176.981 27.047 177.111 26.3634 177.111 25.6635V11.2104H183.776V37.3578H182.165L179.967 34.3061ZM195.543 37.3578H188.878V11.2104H190.49L192.687 13.7494C193.761 12.7729 194.974 12.0242 196.325 11.5033C197.692 10.9662 199.116 10.6977 200.597 10.6977C202.192 10.6977 203.698 11.0069 205.114 11.6254C206.53 12.2276 207.767 13.0658 208.825 14.1401C209.883 15.198 210.713 16.4431 211.315 17.8754C211.933 19.2914 212.243 20.8051 212.243 22.4164V37.3578H205.578V22.4164C205.578 21.7328 205.447 21.0899 205.187 20.4877C204.927 19.8692 204.569 19.3321 204.113 18.8764C203.657 18.4207 203.128 18.0626 202.526 17.8022C201.924 17.5418 201.281 17.4115 200.597 17.4115C199.897 17.4115 199.238 17.5418 198.62 17.8022C198.001 18.0626 197.464 18.4207 197.008 18.8764C196.553 19.3321 196.194 19.8692 195.934 20.4877C195.674 21.0899 195.543 21.7328 195.543 22.4164V37.3578ZM229.772 37.3578C228.161 37.3578 226.647 37.0567 225.231 36.4545C223.815 35.836 222.57 34.9978 221.496 33.9399C220.438 32.8656 219.599 31.6205 218.981 30.2045C218.379 28.7885 218.078 27.2748 218.078 25.6635V17.8998H214.831V11.2592H218.078V0.809982H224.718V11.2592H234.826V17.8998H224.718V25.6635C224.718 26.3634 224.848 27.0225 225.109 27.641C225.369 28.2433 225.727 28.7722 226.183 29.228C226.639 29.6837 227.176 30.0499 227.794 30.3266C228.413 30.587 229.072 30.7172 229.772 30.7172H234.826V37.3578H229.772ZM248.986 30.9613C249.246 31.0427 249.507 31.0997 249.767 31.1322C250.028 31.1485 250.288 31.1567 250.548 31.1567C251.199 31.1567 251.826 31.0671 252.428 30.8881C253.03 30.7091 253.592 30.4568 254.113 30.1313C254.65 29.7895 255.122 29.3826 255.529 28.9106C255.952 28.4223 256.294 27.8852 256.554 27.2992L261.437 32.2065C260.819 33.0854 260.102 33.8748 259.289 34.5746C258.491 35.2745 257.62 35.8686 256.676 36.3569C255.749 36.8451 254.764 37.2113 253.722 37.4555C252.697 37.7159 251.639 37.8461 250.548 37.8461C248.709 37.8461 246.976 37.5043 245.348 36.8207C243.737 36.1371 242.321 35.185 241.1 33.9643C239.896 32.7436 238.944 31.295 238.244 29.6186C237.544 27.9259 237.194 26.0704 237.194 24.0522C237.194 21.9851 237.544 20.0971 238.244 18.3881C238.944 16.6791 239.896 15.2224 241.1 14.018C242.321 12.8136 243.737 11.8777 245.348 11.2104C246.976 10.5431 248.709 10.2094 250.548 10.2094C251.639 10.2094 252.705 10.3396 253.747 10.6C254.788 10.8604 255.773 11.2348 256.701 11.7231C257.645 12.2113 258.524 12.8136 259.337 13.5297C260.151 14.2296 260.867 15.019 261.486 15.8979L248.986 30.9613ZM252.404 17.2162C252.095 17.1023 251.785 17.0291 251.476 16.9965C251.183 16.964 250.874 16.9477 250.548 16.9477C249.637 16.9477 248.774 17.1186 247.96 17.4604C247.163 17.7859 246.463 18.2579 245.861 18.8764C245.275 19.4949 244.811 20.2436 244.469 21.1225C244.127 21.9851 243.957 22.9617 243.957 24.0522C243.957 24.2963 243.965 24.573 243.981 24.8822C244.014 25.1915 244.054 25.5089 244.103 25.8344C244.168 26.1436 244.241 26.4447 244.323 26.7377C244.404 27.0307 244.51 27.2911 244.64 27.519L252.404 17.2162ZM271.52 37.3578H264.855V11.2104H266.466L268.664 14.311C269.738 13.3344 270.958 12.5857 272.326 12.0649C273.693 11.5278 275.109 11.2592 276.574 11.2592H282.458V17.8998H276.574C275.874 17.8998 275.215 18.03 274.596 18.2905C273.978 18.5509 273.441 18.9089 272.985 19.3647C272.529 19.8204 272.171 20.3575 271.911 20.976C271.65 21.5945 271.52 22.2537 271.52 22.9535V37.3578Z" fill="#FD7014"/>
</g>
<defs>
<filter id="filter0_d" x="0.42627" y="0.809982" width="283.031" height="39.0361" filterUnits="userSpaceOnUse" color-interpolation-filters="sRGB">
<feFlood flood-opacity="0" result="BackgroundImageFix"/>
<feColorMatrix in="SourceAlpha" type="matrix" values="0 0 0 0 0 0 0 0 0 0 0 0 0 0 0 0 0 0 127 0"/>
<feOffset dx="1" dy="2"/>
<feColorMatrix type="matrix" values="0 0 0 0 0.223529 0 0 0 0 0.243137 0 0 0 0 0.27451 0 0 0 1 0"/>
<feBlend mode="normal" in2="BackgroundImageFix" result="effect1_dropShadow"/>
<feBlend mode="normal" in="SourceGraphic" in2="effect1_dropShadow" result="shape"/>
</filter>
</defs>
</svg>
