<svg width="279" height="42" viewBox="0 0 279 42" fill="none" xmlns="http://www.w3.org/2000/svg">
<g filter="url(#filter0_d)">
<path d="M25.54 26.8344C25.54 30.1547 24.4495 32.9786 22.2686 35.3061C20.0387 37.6661 17.0277 38.8461 13.2354 38.8461C9.44303 38.8461 6.43197 37.6661 4.20215 35.3061C2.00488 32.9786 0.90625 30.2524 0.90625 27.1274L5.54492 24.9301H5.78906V26.9321C5.78906 28.9177 6.375 30.586 7.54688 31.9369C8.99544 33.6134 10.8916 34.4516 13.2354 34.4516C15.5628 34.4516 17.459 33.6134 18.9238 31.9369C20.0794 30.6186 20.6572 28.934 20.6572 26.8832C20.6572 24.9464 20.1852 23.4246 19.2412 22.3178C17.9391 20.7878 15.9372 20.0229 13.2354 20.0229C10.2731 20.0229 7.70964 19.0463 5.54492 17.0932C3.91732 15.6283 3.10352 13.5043 3.10352 10.7211C3.10352 7.44963 4.11263 4.99195 6.13086 3.34807C8.05143 1.78557 10.4196 1.00432 13.2354 1.00432C16.0511 1.00432 18.4193 1.78557 20.3398 3.34807C22.3581 4.99195 23.3672 7.24618 23.3672 10.1108L18.7285 12.308H18.4844V10.3549C18.4844 8.49944 17.9554 7.11597 16.8975 6.20451C15.8721 5.30933 14.6514 4.86174 13.2354 4.86174C11.6566 4.86174 10.387 5.35816 9.42676 6.351C8.46647 7.34384 7.98633 8.67847 7.98633 10.3549C7.98633 11.9662 8.35254 13.1788 9.08496 13.9926C10.0615 15.0831 11.445 15.6283 13.2354 15.6283C17.1742 15.6283 20.1852 16.5561 22.2686 18.4115C24.4495 20.3484 25.54 23.156 25.54 26.8344ZM53.3965 27.5424V29.0805C53.3965 31.766 52.3874 34.1016 50.3691 36.0873C48.4811 37.9265 46.113 38.8461 43.2646 38.8461C40.4489 38.8461 38.0807 37.9265 36.1602 36.0873C34.1419 34.1342 33.1328 31.7986 33.1328 29.0805V20.7797C33.1328 18.0779 34.1419 15.7423 36.1602 13.7729C38.0482 11.9337 40.4163 11.0141 43.2646 11.0141C46.0479 11.0141 48.416 11.9337 50.3691 13.7729C52.3874 15.6772 53.3965 17.7768 53.3965 20.0717V20.1205L48.7578 22.3178H48.5137V20.7797C48.5137 18.908 48.001 17.5408 46.9756 16.6781C45.9665 15.7992 44.7295 15.3598 43.2646 15.3598C41.7998 15.3598 40.5547 15.7992 39.5293 16.6781C38.5202 17.5408 38.0156 18.908 38.0156 20.7797V29.0805C38.0156 30.9522 38.5202 32.3276 39.5293 33.2065C40.5547 34.0691 41.7998 34.5004 43.2646 34.5004C44.7295 34.5004 45.9665 34.061 46.9756 33.1821C48.001 32.3031 48.5137 31.1557 48.5137 29.7397L53.1523 27.5424H53.3965ZM79.2754 37.1371L74.6367 39.3344H74.3926V36.7709C73.0905 38.1544 71.3408 38.8461 69.1436 38.8461C66.0999 38.8461 63.7318 37.9265 62.0391 36.0873C60.3464 34.2481 59.5 32.0753 59.5 29.5688C59.5 26.9646 60.4196 24.7511 62.2588 22.9281C64.0329 21.1703 66.3278 20.2914 69.1436 20.2914C71.1455 20.2914 72.8952 20.9832 74.3926 22.3666C74.3926 19.4858 73.888 17.5896 72.8789 16.6781C71.9023 15.7992 70.6572 15.3598 69.1436 15.3598H63.2109V15.1156L65.1641 11.0141H69.1436C71.9919 11.0141 74.36 11.9337 76.248 13.7729C78.2663 15.7423 79.2754 18.0779 79.2754 20.7797V37.1371ZM64.2852 29.5688C64.2852 31.0173 64.7246 32.2136 65.6035 33.1576C66.4499 34.0691 67.638 34.5248 69.168 34.5248C70.763 34.5248 72 34.061 72.8789 33.1332C73.8555 32.0916 74.3438 30.9197 74.3438 29.6176C74.3438 28.1528 73.8392 26.9646 72.8301 26.0531C71.821 25.1417 70.6084 24.686 69.1924 24.686C67.7113 24.686 66.5231 25.1661 65.6279 26.1264C64.7327 27.0867 64.2852 28.2341 64.2852 29.5688ZM87.8203 39.3344V2.7133L92.459 0.516037H92.7031V37.1371L88.0645 39.3344H87.8203ZM121.512 27.5424V29.0805C121.512 31.766 120.503 34.1016 118.484 36.0873C116.596 37.9265 114.228 38.8461 111.38 38.8461C108.564 38.8461 106.196 37.9265 104.275 36.0873C102.257 34.1342 101.248 31.7986 101.248 29.0805V20.7797C101.248 18.0942 102.257 15.7586 104.275 13.7729C106.163 11.9337 108.532 11.0141 111.38 11.0141C114.147 11.0141 116.515 11.9337 118.484 13.7729C120.503 15.6609 121.512 17.7605 121.512 20.0717V20.1205L106.619 31.7905C106.863 32.3438 107.205 32.8077 107.645 33.1821C108.67 34.061 109.915 34.5004 111.38 34.5004C112.845 34.5004 114.082 34.061 115.091 33.1821C116.116 32.3031 116.629 31.1557 116.629 29.7397L121.268 27.5424H121.512ZM106.131 26.8588L116.336 18.5824C116.076 17.7849 115.669 17.1502 115.115 16.6781C114.09 15.7992 112.845 15.3598 111.38 15.3598C109.915 15.3598 108.67 15.7992 107.645 16.6781C106.635 17.5408 106.131 18.908 106.131 20.7797V26.8588ZM130.057 39.3344V2.7133L134.695 0.516037H134.939V17.7035H149.344V2.7133L153.982 0.516037H154.227V37.1371L149.588 39.3344H149.344V22.1469H134.939V37.1371L130.301 39.3344H130.057ZM183.035 10.5258V29.0805C183.035 31.766 182.026 34.1016 180.008 36.0873C178.12 37.9265 175.752 38.8461 172.903 38.8461C170.088 38.8461 167.719 37.9265 165.799 36.0873C163.781 34.1342 162.771 31.7986 162.771 29.0805V12.7231L167.41 10.5258H167.654V29.0805C167.654 30.9522 168.159 32.3276 169.168 33.2065C170.193 34.0691 171.438 34.5004 172.903 34.5004C174.368 34.5004 175.605 34.0691 176.614 33.2065C177.64 32.3276 178.152 30.9522 178.152 29.0805V12.7231L182.791 10.5258H183.035ZM190.359 39.3344V20.7797C190.359 18.0942 191.368 15.7586 193.387 13.7729C195.275 11.9337 197.643 11.0141 200.491 11.0141C203.307 11.0141 205.675 11.9337 207.596 13.7729C209.614 15.726 210.623 18.0616 210.623 20.7797V37.1371L205.984 39.3344H205.74V20.7797C205.74 18.908 205.228 17.5408 204.202 16.6781C203.193 15.7992 201.956 15.3598 200.491 15.3598C199.026 15.3598 197.781 15.7992 196.756 16.6781C195.747 17.5408 195.242 18.908 195.242 20.7797V37.1371L190.604 39.3344H190.359ZM221.17 39.3344V15.9457H214.896V15.7016L216.873 11.5024H221.17V2.7133L225.809 0.516037H226.053V11.5024H232.327V11.7465L230.35 15.9457H226.053V37.1371L221.414 39.3344H221.17ZM256.863 27.5424V29.0805C256.863 31.766 255.854 34.1016 253.836 36.0873C251.948 37.9265 249.58 38.8461 246.731 38.8461C243.916 38.8461 241.548 37.9265 239.627 36.0873C237.609 34.1342 236.6 31.7986 236.6 29.0805V20.7797C236.6 18.0942 237.609 15.7586 239.627 13.7729C241.515 11.9337 243.883 11.0141 246.731 11.0141C249.498 11.0141 251.867 11.9337 253.836 13.7729C255.854 15.6609 256.863 17.7605 256.863 20.0717V20.1205L241.971 31.7905C242.215 32.3438 242.557 32.8077 242.996 33.1821C244.021 34.061 245.267 34.5004 246.731 34.5004C248.196 34.5004 249.433 34.061 250.442 33.1821C251.468 32.3031 251.98 31.1557 251.98 29.7397L256.619 27.5424H256.863ZM241.482 26.8588L251.688 18.5824C251.427 17.7849 251.02 17.1502 250.467 16.6781C249.441 15.7992 248.196 15.3598 246.731 15.3598C245.267 15.3598 244.021 15.7992 242.996 16.6781C241.987 17.5408 241.482 18.908 241.482 20.7797V26.8588ZM264.188 39.3344V20.7797C264.188 18.0942 265.197 15.7586 267.215 13.7729C269.103 11.9337 271.471 11.0141 274.319 11.0141H277.615V11.2582L275.662 15.3598H274.319C272.854 15.3598 271.609 15.7992 270.584 16.6781C269.575 17.5408 269.07 18.908 269.07 20.7797C269.07 20.7797 269.07 26.2322 269.07 37.1371L264.432 39.3344H264.188Z" fill="#FD7014"/>
</g>
<defs>
<filter id="filter0_d" x="0.90625" y="0.516037" width="277.709" height="40.8184" filterUnits="userSpaceOnUse" color-interpolation-filters="sRGB">
<feFlood flood-opacity="0" result="BackgroundImageFix"/>
<feColorMatrix in="SourceAlpha" type="matrix" values="0 0 0 0 0 0 0 0 0 0 0 0 0 0 0 0 0 0 127 0"/>
<feOffset dx="1" dy="2"/>
<feColorMatrix type="matrix" values="0 0 0 0 0.223529 0 0 0 0 0.243137 0 0 0 0 0.27451 0 0 0 1 0"/>
<feBlend mode="normal" in2="BackgroundImageFix" result="effect1_dropShadow"/>
<feBlend mode="normal" in="SourceGraphic" in2="effect1_dropShadow" result="shape"/>
</filter>
</defs>
</svg>
