<svg width="886" height="275" viewBox="0 0 886 275" fill="none" xmlns="http://www.w3.org/2000/svg">
<path d="M74.3654 18.818L74.3654 254.818H75.3654L75.3654 18.818" stroke="#393E46"/>
<path d="M269.365 16.818L269.365 258.818H270.365L270.365 16.818" stroke="#393E46"/>
<path d="M139.365 17.818L139.365 257.818H140.365L140.365 17.818" stroke="#393E46"/>
<path d="M204.365 16.818L204.365 257.818H205.365L205.365 16.818" stroke="#393E46"/>
<path d="M334.365 15.818L334.365 259.818H335.365L335.365 15.818" stroke="#393E46"/>
<path d="M529.365 9.81799L529.365 265.818H530.365L530.365 9.81799" stroke="#393E46"/>
<path d="M399.365 12.818L399.365 262.818H400.365L400.365 12.818" stroke="#393E46"/>
<path d="M464.365 9.81799L464.365 263.818H465.365L465.365 9.81799" stroke="#393E46"/>
<path d="M594.365 7.81799L594.365 266.818H595.365L595.365 7.81799" stroke="#393E46"/>
<path d="M659.365 7.81799L659.365 267.818H660.365L660.365 7.81799" stroke="#393E46"/>
<path d="M854.365 13.8181L854.365 263.818H855.365L855.365 13.8181" stroke="#393E46"/>
<path d="M724.365 4.81799L724.365 270.818H725.365L725.365 4.81799" stroke="#393E46"/>
<path d="M789.365 4.81805L789.365 271.818H790.365L790.365 4.81805" stroke="#393E46"/>
<line x1="0.421081" y1="21.2604" x2="852.221" y2="2.37656" stroke="#393E46" stroke-width="4"/>
<line x1="6.37443" y1="52.5326" x2="864.265" y2="33.5138" stroke="#393E46"/>
<line x1="6.31647" y1="88.472" x2="875.227" y2="76.0355" stroke="#393E46"/>
<line x1="9.46149" y1="120.702" x2="881.954" y2="113.873" stroke="#393E46"/>
<line x1="0.478913" y1="253.878" x2="852.341" y2="272.763" stroke="#393E46" stroke-width="4"/>
<line x1="9.47649" y1="225.558" x2="864.266" y2="244.508" stroke="#393E46"/>
<line x1="6.31421" y1="190.662" x2="875.264" y2="203.042" stroke="#393E46"/>
<line x1="4.96934" y1="155.766" x2="884.617" y2="162.675" stroke="#393E46"/>
<line x1="2.36543" y1="21.818" x2="2.36542" y2="255.818" stroke="#393E46" stroke-width="4"/>
<rect x="0.465408" y="19.4505" width="9" height="236" fill="#545A63"/>
<path d="M850.365 2.81805C875.032 52.6514 909.565 176.418 850.365 272.818" stroke="#393E46" stroke-width="5"/>
<circle cx="173.282" cy="138.734" r="7.5" fill="#AAAAAA"/>
<circle cx="303.282" cy="138.734" r="7.5" fill="#AAAAAA"/>
<circle cx="433.282" cy="138.734" r="7.5" fill="#AAAAAA"/>
<circle cx="563.282" cy="138.734" r="7.5" fill="#AAAAAA"/>
<circle cx="758.282" cy="97.723" r="7.5" fill="#AAAAAA"/>
<circle cx="758.282" cy="178.542" r="7.5" fill="#AAAAAA"/>
</svg>
